<?xml version="1.0" encoding="UTF-8" standalone="no"?>
<!-- Created with Inkscape (http://www.inkscape.org/) -->

<svg
   width="48"
   height="48"
   viewBox="0 0 48 48"
   version="1.1"
   id="svg1"
   sodipodi:docname="cart-drawing.svg"
   inkscape:version="1.4.3 (0d15f75, 2025-12-25)"
   xmlns:inkscape="http://www.inkscape.org/namespaces/inkscape"
   xmlns:sodipodi="http://sodipodi.sourceforge.net/DTD/sodipodi-0.dtd"
   xmlns="http://www.w3.org/2000/svg"
   xmlns:svg="http://www.w3.org/2000/svg">
  <sodipodi:namedview
     id="namedview1"
     pagecolor="#ffffff"
     bordercolor="#000000"
     borderopacity="0.25"
     inkscape:showpageshadow="2"
     inkscape:pageopacity="0.0"
     inkscape:pagecheckerboard="0"
     inkscape:deskcolor="#d1d1d1"
     inkscape:document-units="px"
     inkscape:zoom="11.534679"
     inkscape:cx="19.896522"
     inkscape:cy="17.81584"
     inkscape:window-width="1450"
     inkscape:window-height="991"
     inkscape:window-x="0"
     inkscape:window-y="0"
     inkscape:window-maximized="0"
     inkscape:current-layer="layer1">
    <inkscape:page
       x="0"
       y="0"
       width="48"
       height="48"
       id="page2"
       margin="0"
       bleed="0" />
  </sodipodi:namedview>
  <defs
     id="defs1" />
  <g
     inkscape:label="Layer 1"
     inkscape:groupmode="layer"
     id="layer1">
    <path
       style="fill:#cdcdcd;fill-opacity:1;stroke:#000000;stroke-width:0.436761;stroke-linecap:round;stroke-linejoin:round;stroke-dasharray:none;stroke-opacity:1;paint-order:markers fill stroke"
       d="m 16.460228,24.94406 4.94332,-4.796204 0.556994,0.466297 -5.639562,5.462343 z"
       id="path87" />
    <path
       style="fill:#c39e4c;fill-opacity:1;stroke:#000000;stroke-width:0.593868;stroke-linecap:round;stroke-linejoin:round;stroke-dasharray:none;stroke-opacity:1;paint-order:markers fill stroke"
       d="m 36.163879,23.278711 0.626618,-3.597152 c 0.466222,-1.1895 1.120832,-1.315587 2.784969,-1.065824 l -0.974738,4.596364 z"
       id="path86" />
    <path
       style="fill:#007259;fill-opacity:1;stroke:#000000;stroke-width:0.593868;stroke-linejoin:round;stroke-dasharray:none;stroke-opacity:1"
       d="M 41.426514,24.082651 38.571072,11.835827 38.152889,10.925473 h 1.183612 l 3.411586,13.855701 -1.113986,0.399684 z"
       id="path23" />
    <path
       style="fill:#00eeba;fill-opacity:1;stroke:#000000;stroke-width:0.593868;stroke-linecap:round;stroke-dasharray:none;stroke-opacity:1"
       d="m 42.290812,24.011464 -2.863203,0.06182 c -0.242418,0.347903 -0.462717,0.866104 -0.984634,1.413094 H 27.611988 l -2.166197,6.68865 -0.143288,1.428842 17.614926,-0.266457 0.905116,0.06661 0.06964,-8.593201 c -0.331296,-0.707159 -0.774633,-0.799359 -1.601367,-0.79936 z"
       id="path19" />
    <path
       style="fill:#e1f5f3;fill-opacity:1;stroke:#000000;stroke-width:0.579504;stroke-linecap:round;stroke-linejoin:round;stroke-dasharray:none;stroke-opacity:1;paint-order:markers fill stroke"
       d="m 13.588626,7.8170137 26.271718,0.066901 c 1.087801,0.6300253 1.646732,1.7989289 1.650235,3.2114023 l -29.374158,0.0669 c 0.0351,-1.7687289 0.271077,-2.3190866 1.452205,-3.3452162 z"
       id="path85" />
    <path
       style="fill:#cadaed;fill-opacity:1;stroke:#000000;stroke-width:0.593868;stroke-linecap:round;stroke-linejoin:round;stroke-dasharray:none;stroke-opacity:1;paint-order:markers fill stroke"
       d="m 13.118265,10.688668 5.77881,0.133235 L 15.48549,25.476975 7.6179549,25.410365 12.839769,11.82112 Z"
       id="path84" />
    <path
       style="fill:#007259;fill-opacity:1;stroke:#000000;stroke-width:0.593868;stroke-linecap:round;stroke-linejoin:round;stroke-dasharray:none;stroke-opacity:1;paint-order:markers fill stroke"
       d="m 16.390605,24.477761 2.854592,-12.989718 -1.113988,-0.06661 -2.715344,12.989723 z"
       id="path83" />
    <path
       style="fill:#00eeba;fill-opacity:1;stroke:#000000;stroke-width:0.593868;stroke-linecap:round;stroke-dasharray:none;stroke-opacity:1"
       d="m 17.419913,32.867138 -0.09846,-8.384365 C 12.213417,23.871875 2.4414865,23.925692 2.3550015,29.758329 l 0.098463,3.674047 z"
       id="path18" />
    <path
       style="fill:#eaeaea;fill-opacity:1;stroke:#000000;stroke-width:0.596352;stroke-linecap:round;stroke-dasharray:none;stroke-opacity:1"
       d="m 45.07578,32.737887 -2.854593,0.06661 c -1.173307,-4.783961 -8.872198,-4.619225 -10.652504,7e-6 L 15.624737,32.671273 C 13.465732,28.33949 6.8528255,28.404185 4.6937379,32.871118 l -3.0634735,0.0666 -0.011372,1.402831 43.5183306,-0.09177 z"
       id="path3"
       sodipodi:nodetypes="ccccccccc" />
    <ellipse
       style="fill:#555555;fill-opacity:1;stroke:#000000;stroke-width:0.78554;stroke-dasharray:none;stroke-opacity:1"
       id="path1"
       cx="10.036253"
       cy="35.378048"
       rx="4.2831626"
       ry="4.1450791" />
    <ellipse
       style="fill:#f6f6f6;fill-opacity:1;stroke:none;stroke-width:0.909123;stroke-dasharray:none;stroke-opacity:1"
       id="path2"
       cx="9.9870186"
       cy="35.330948"
       rx="2.5600512"
       ry="2.402262" />
    <ellipse
       style="fill:#eaeaea;fill-opacity:1;stroke:#000000;stroke-width:0.279653;stroke-dasharray:none;stroke-opacity:1"
       id="path2-2"
       cx="9.9562502"
       cy="35.366276"
       rx="2.0677338"
       ry="2.0254364" />
    <ellipse
       style="fill:#555555;fill-opacity:1;stroke:#000000;stroke-width:0.78554;stroke-dasharray:none;stroke-opacity:1"
       id="path1-2"
       cx="36.998333"
       cy="35.479614"
       rx="4.2831626"
       ry="4.1450791" />
    <ellipse
       style="fill:#f6f6f6;fill-opacity:1;stroke:none;stroke-width:0.909123;stroke-dasharray:none;stroke-opacity:1"
       id="path2-3"
       cx="36.949097"
       cy="35.432518"
       rx="2.5600512"
       ry="2.402262" />
    <ellipse
       style="fill:#eaeaea;fill-opacity:1;stroke:#000000;stroke-width:0.279653;stroke-dasharray:none;stroke-opacity:1"
       id="path2-2-2"
       cx="36.918331"
       cy="35.467842"
       rx="2.0677338"
       ry="2.0254364" />
    <path
       style="fill:#c39e4c;fill-opacity:1;stroke:#000000;stroke-width:0.593868;stroke-linecap:round;stroke-linejoin:round;stroke-dasharray:none;stroke-opacity:1"
       d="m 38.471813,25.098129 0.196926,-2.072538 -9.354033,0.0942 c -1.187164,0.283959 -1.714529,0.41174 -1.575416,2.07254 z"
       id="path21" />
    <path
       style="fill:#cdcdcd;fill-opacity:1;stroke:#000000;stroke-width:0.593868;stroke-linecap:round;stroke-linejoin:round;stroke-dasharray:none;stroke-opacity:1"
       d="m 20.54156,20.376381 c -2.683336,-7.201246 6.860961,4.627431 1.969268,1.507301 -0.841656,-0.536845 -1.401334,-0.637891 -1.969268,-1.507301 z"
       id="path38" />
    <path
       style="fill:none;fill-opacity:1;stroke:#ffffff;stroke-width:0.436761;stroke-linecap:round;stroke-linejoin:round;stroke-dasharray:none;stroke-opacity:1;paint-order:markers fill stroke"
       d="M 16.6691,24.810832 C 13.913244,25.379616 0.9808943,23.369452 3.0227565,32.271594"
       id="path89"
       sodipodi:nodetypes="cc" />
    <path
       style="fill:none;fill-opacity:1;stroke:#ffffff;stroke-width:0.436761;stroke-linecap:round;stroke-linejoin:round;stroke-dasharray:none;stroke-opacity:1;paint-order:markers fill stroke"
       d="m 25.998746,32.204978 2.088726,-6.061867 10.304383,0.06661 c 0.998364,-0.0269 1.14578,-0.955779 1.531734,-1.398896 0.997947,0 1.995894,0 2.99384,0"
       id="path90" />
    <path
       style="fill:none;fill-opacity:1;stroke:#ffffff;stroke-width:1.01807;stroke-linecap:round;stroke-linejoin:round;stroke-dasharray:none;stroke-opacity:1;paint-order:markers fill stroke"
       d="M 13.5601,12.530821 9.1952225,23.634827"
       id="path91" />
    <path
       style="fill:none;fill-opacity:1;stroke:#ffffff;stroke-width:1.01128;stroke-linecap:round;stroke-linejoin:round;stroke-dasharray:none;stroke-opacity:1;paint-order:markers fill stroke"
       d="m 13.229987,9.5159902 c -0.0095,-0.2417413 0.54332,-0.5899851 1.447577,-0.7854836"
       id="path92" />
    <path
       style="fill:#007259;fill-opacity:1;stroke:#000000;stroke-width:0.583141;stroke-linejoin:round;stroke-dasharray:none;stroke-opacity:1"
       d="m 41.907973,9.8828736 c 1.042775,0.2327344 1.13558,0.8098604 0.849299,1.6112154 l -31.141038,0.189555 c -1.385554,0.02445 -1.6467657,-1.363595 -0.2831,-1.7059944 z"
       id="path25"
       sodipodi:nodetypes="ccccc" />
    <path
       style="fill:none;fill-opacity:1;stroke:#ffffff;stroke-width:1.06519;stroke-linecap:round;stroke-linejoin:round;stroke-dasharray:none;stroke-opacity:1;paint-order:markers fill stroke"
       d="m 11.447285,10.821905 c -0.185664,0.355273 -0.185664,0.355273 0,0 z"
       id="path93" />
  </g>
</svg>
