<?xml version="1.0" encoding="UTF-8" standalone="no"?>
<!-- Created with Inkscape (http://www.inkscape.org/) -->

<svg
   width="48"
   height="48"
   viewBox="0 0 48 48"
   version="1.1"
   id="svg1"
   sodipodi:docname="ball-drawing.svg"
   inkscape:version="1.4.3 (0d15f75, 2025-12-25)"
   inkscape:export-filename="..\..\Desktop\ball-drawing.svg"
   inkscape:export-xdpi="96"
   inkscape:export-ydpi="96"
   xmlns:inkscape="http://www.inkscape.org/namespaces/inkscape"
   xmlns:sodipodi="http://sodipodi.sourceforge.net/DTD/sodipodi-0.dtd"
   xmlns="http://www.w3.org/2000/svg"
   xmlns:svg="http://www.w3.org/2000/svg">
  <sodipodi:namedview
     id="namedview1"
     pagecolor="#ffffff"
     bordercolor="#000000"
     borderopacity="0.25"
     inkscape:showpageshadow="2"
     inkscape:pageopacity="0.0"
     inkscape:pagecheckerboard="0"
     inkscape:deskcolor="#d1d1d1"
     inkscape:zoom="16.3125"
     inkscape:cx="20.260536"
     inkscape:cy="23.877395"
     inkscape:window-width="1920"
     inkscape:window-height="1001"
     inkscape:window-x="-9"
     inkscape:window-y="-9"
     inkscape:window-maximized="1"
     inkscape:current-layer="layer1">
    <inkscape:page
       x="0"
       y="0"
       width="48"
       height="48"
       id="page2"
       margin="0"
       bleed="0" />
  </sodipodi:namedview>
  <defs
     id="defs1" />
  <g
     id="layer1">
    <path
       style="fill:#18833a;fill-opacity:1;stroke:#000000;stroke-width:0.383923;stroke-linecap:round;stroke-linejoin:round;stroke-dasharray:none;stroke-opacity:1;paint-order:stroke markers fill"
       d="m 28.139648,33.521122 c 0.978039,-2.574929 2.915394,-5.187906 5.585204,-5.697949 -1.248137,2.937264 -1.328337,5.187291 -0.466346,7.673998 0.127482,0.367786 -0.16834,1.154243 -0.05296,1.487097 0.121873,0.351584 -0.895615,1.819652 -0.997487,2.206025 l -7.10184,-3.10497 z"
       id="path132-3" />
    <path
       style="fill:#d9d9d9;fill-opacity:1;stroke:none;stroke-width:0.414305;stroke-linecap:round;stroke-linejoin:round;stroke-dasharray:none;stroke-opacity:1;paint-order:stroke markers fill"
       d="m 32.771349,31.387239 -6.368925,4.810915"
       id="path7" />
    <path
       style="fill:#1c9543;fill-opacity:1;stroke:#000000;stroke-width:0.660127;stroke-linecap:butt;stroke-linejoin:round;stroke-dasharray:none;stroke-opacity:1;paint-order:stroke markers fill"
       d="M 5.4109688,39.782467 H 45.762417 L 35.674555,34.411158 12.736679,35.00797 Z"
       id="path109" />
    <path
       style="fill:#25c258;fill-opacity:1;stroke:#000000;stroke-width:0.660127;stroke-linecap:butt;stroke-linejoin:round;stroke-dasharray:none;stroke-opacity:1;paint-order:stroke markers fill"
       d="m 16.937867,37.395218 24.619186,-0.238725 c -3.472362,-3.967517 -6.2987,-8.021983 -4.923836,-13.487957 -1.661758,3.361374 -3.044919,7.737399 0.600467,9.548997 -7.011835,2.622629 -6.022043,-8.152604 -6.485053,-12.294334 -0.623593,4.52827 -2.70242,10.336415 0.240187,13.846046 -1.682599,-0.723356 -2.801216,-1.451763 -4.203276,-2.148525 0.196237,1.124821 -0.09684,2.023999 -0.360281,2.984061 -3.732236,-1.224814 -4.748699,-6.031126 -3.722901,-9.429632 -1.816253,1.974923 -3.411899,4.778306 -2.041591,7.161747 -2.844207,2.88128 -3.814799,-0.723438 -4.323371,-2.745337 0.120627,2.743381 -1.49455,6.482051 -4.083181,6.803659 1.900606,-0.190362 3.040259,-1.400045 4.68365,0 z"
       id="path108" />
    <ellipse
       style="fill:#ffffff;fill-opacity:1;stroke:#000000;stroke-width:1.24292;stroke-linecap:round;stroke-linejoin:round;stroke-opacity:1;paint-order:stroke markers fill"
       id="path1"
       cx="24.534206"
       cy="23.453449"
       rx="13.671958"
       ry="13.841927" />
    <path
       style="fill:#d9d9d9;fill-opacity:1;stroke:none;stroke-width:0.414305;stroke-linecap:round;stroke-linejoin:round;stroke-dasharray:none;stroke-opacity:1;paint-order:stroke markers fill"
       d="m 37.57448,27.214678 c -0.132955,2.047972 -2.82062,6.11726 -5.434475,7.915139 -6.643913,4.569861 -9.736967,4.413832 -17.228687,0.328728 1.703669,-0.376336 3.788658,-0.385144 5.59882,-0.316497 7.293638,0.276604 7.758492,-1.021625 13.49222,-4.965437 1.344297,-0.924645 1.942202,-2.181856 3.572122,-2.961933 z"
       id="path6" />
    <path
       style="fill:#18833a;fill-opacity:1;stroke:#000000;stroke-width:0.383923;stroke-linecap:round;stroke-linejoin:round;stroke-dasharray:none;stroke-opacity:1;paint-order:stroke markers fill"
       d="m 11.753953,32.70897 c -0.256138,-2.740512 0.333253,-5.933045 2.508197,-7.554322 0.173106,3.183842 1.093039,5.241261 2.964232,7.101061 0.276752,0.275069 0.357583,1.110838 0.608047,1.35978 0.26456,0.262947 -0.0027,2.025712 0.07601,2.417381 l -7.752611,0.302174 z"
       id="path132" />
    <path
       style="fill:#25c258;fill-opacity:1;stroke:#000000;stroke-width:0.383923;stroke-linecap:round;stroke-linejoin:round;stroke-dasharray:none;stroke-opacity:1;paint-order:stroke markers fill"
       d="m 9.0937455,38.503895 c -0.1259466,-0.241475 0.3750232,-0.902788 0.9880765,-1.359777 -0.1013454,0.226629 -0.202683,0.453258 -0.3040246,0.679887 0,0.02518 0,0.05037 0,0.07555 0.5207886,-0.480752 1.1300046,-0.820953 1.4441146,-1.133149 0.09483,0.451014 0.07601,0.904264 0.07601,1.359778 0.473997,-0.386511 0.61349,-0.377717 1.06408,-0.377717 -0.247857,0.457123 -0.228016,0.821472 -0.228016,1.284235"
       id="path130" />
    <path
       style="fill:#25c258;fill-opacity:1;stroke:#000000;stroke-width:0.383923;stroke-linecap:round;stroke-linejoin:round;stroke-dasharray:none;stroke-opacity:1;paint-order:stroke markers fill"
       d="m 27.374751,39.629964 c 0.234853,-0.139621 0.158429,-0.963933 -0.121401,-1.672985 -0.03365,0.245741 -0.0673,0.491479 -0.100947,0.737217 -0.0133,0.02143 -0.02663,0.04285 -0.03995,0.06428 -0.188779,-0.681062 -0.527114,-1.288757 -0.629215,-1.71845 -0.319204,0.334131 -0.5429,0.729545 -0.783811,1.11705 -0.198814,-0.576444 -0.322132,-0.641843 -0.705447,-0.877255 -0.03091,0.518368 -0.24048,0.817953 -0.485222,1.211624"
       id="path130-4" />
    <path
       style="fill:#25c258;fill-opacity:1;stroke:#000000;stroke-width:0.383923;stroke-linecap:round;stroke-linejoin:round;stroke-dasharray:none;stroke-opacity:1;paint-order:stroke markers fill"
       d="m 32.579587,36.690858 c 0.268362,-0.150311 0.980514,-1.601439 0.456034,-2.644013 0.929892,0.491313 1.295,1.115867 1.14009,2.039667 0.603522,-0.663949 1.178621,-0.536462 1.900149,-0.679889 -0.451851,0.816489 -0.05179,0.963796 0.304023,1.435322"
       id="path131" />
    <path
       style="fill:#28cf5e;fill-opacity:1;stroke:#000000;stroke-width:0.342023;stroke-linecap:round;stroke-linejoin:round;stroke-dasharray:none;stroke-opacity:1;paint-order:stroke markers fill"
       d="m 38.511728,33.572717 0.986448,2.148059 c 0.757308,1.26047 0.854919,2.405479 0.854919,3.880362 l -1.381023,0.207876 c 0.241252,-1.474356 0.04245,-2.726956 -0.789159,-3.603193 l 1.05221,0.692921 c -0.457546,-1.024006 -0.41147,-2.175702 -0.723395,-3.326025 z"
       id="path166" />
    <path
       style="fill:#d9d9d9;fill-opacity:1;stroke:#000000;stroke-width:0.552413;stroke-linecap:round;stroke-linejoin:round;stroke-dasharray:none;stroke-opacity:1;paint-order:stroke markers fill"
       id="path2-8-84"
       sodipodi:type="arc"
       sodipodi:cx="-8.6912489"
       sodipodi:cy="30.258114"
       sodipodi:rx="1.3401875"
       sodipodi:ry="1.369118"
       sodipodi:start="0"
       sodipodi:end="3.8029915"
       sodipodi:arc-type="arc"
       d="m -7.3510613,30.258114 a 1.3401875,1.369118 0 0 1 -0.9401264,1.306694 1.3401875,1.369118 0 0 1 -1.5014031,-0.526568 1.3401875,1.369118 0 0 1 0.043755,-1.621068"
       sodipodi:open="true"
       transform="matrix(0.46861245,-0.88340386,0.8863871,0.46294481,0,0)" />
    <path
       style="fill:#d9d9d9;fill-opacity:1;stroke:#000000;stroke-width:0.55241;stroke-linecap:round;stroke-linejoin:round;stroke-dasharray:none;stroke-opacity:1;paint-order:stroke markers fill"
       id="path2-8-84-8-0"
       sodipodi:type="arc"
       sodipodi:cx="21.045008"
       sodipodi:cy="16.946594"
       sodipodi:rx="1.3699162"
       sodipodi:ry="1.339394"
       sodipodi:start="0.36147788"
       sodipodi:end="3.1331094"
       sodipodi:arc-type="arc"
       d="m 22.326393,17.42028 a 1.3699162,1.339394 0 0 1 -1.521918,0.8449 1.3699162,1.339394 0 0 1 -1.129334,-1.307223"
       transform="matrix(0.97365843,-0.22801153,0.223435,0.97471883,0,0)"
       sodipodi:open="true" />
    <path
       style="fill:#d9d9d9;fill-opacity:1;stroke:#000000;stroke-width:0.552414;stroke-linecap:round;stroke-linejoin:round;stroke-dasharray:none;stroke-opacity:1;paint-order:stroke markers fill"
       id="path2-8-84-8-0-2"
       sodipodi:type="arc"
       sodipodi:cx="3.4690189"
       sodipodi:cy="22.764215"
       sodipodi:rx="1.3578609"
       sodipodi:ry="1.351301"
       sodipodi:start="0.36147788"
       sodipodi:end="3.1331094"
       sodipodi:arc-type="arc"
       d="M 4.7391283,23.242112 A 1.3578609,1.351301 0 0 1 3.2306025,24.094524 1.3578609,1.351301 0 0 1 2.1112069,22.775679"
       transform="matrix(0.72049339,-0.6934618,0.69829275,0.71581229,0,0)"
       sodipodi:open="true" />
    <path
       style="fill:#d9d9d9;fill-opacity:1;stroke:#000000;stroke-width:0.552408;stroke-linecap:round;stroke-linejoin:round;stroke-dasharray:none;stroke-opacity:1;paint-order:stroke markers fill"
       id="path2-8-84-8-0-2-2"
       sodipodi:type="arc"
       sodipodi:cx="-12.560847"
       sodipodi:cy="19.208225"
       sodipodi:rx="1.3462411"
       sodipodi:ry="1.3629354"
       sodipodi:start="0.36147788"
       sodipodi:end="3.1331094"
       sodipodi:arc-type="arc"
       d="m -11.301607,19.690237 a 1.3462411,1.3629354 0 0 1 -1.495617,0.85975 1.3462411,1.3629354 0 0 1 -1.109816,-1.3302"
       transform="matrix(0.3078192,-0.95144487,0.95092302,0.30942754,0,0)"
       sodipodi:open="true" />
    <path
       style="fill:#d9d9d9;fill-opacity:1;stroke:#000000;stroke-width:0.55244;stroke-linecap:round;stroke-linejoin:round;stroke-dasharray:none;stroke-opacity:1;paint-order:stroke markers fill"
       id="path2-8-84-8-0-2-2-6"
       sodipodi:type="arc"
       sodipodi:cx="-23.912079"
       sodipodi:cy="11.614275"
       sodipodi:rx="1.3437496"
       sodipodi:ry="1.365621"
       sodipodi:start="0.36147788"
       sodipodi:end="3.1331094"
       sodipodi:arc-type="arc"
       d="m -22.655169,12.097236 a 1.3437496,1.365621 0 0 1 -1.492849,0.861445 1.3437496,1.365621 0 0 1 -1.107762,-1.332821"
       transform="matrix(-0.04822105,-0.99883669,0.99945847,-0.03290546,0,0)"
       sodipodi:open="true" />
    <path
       style="fill:#d9d9d9;fill-opacity:1;stroke:#000000;stroke-width:0.552413;stroke-linecap:round;stroke-linejoin:round;stroke-dasharray:none;stroke-opacity:1;paint-order:stroke markers fill"
       id="path2-8-0"
       sodipodi:type="arc"
       sodipodi:cx="-4.5719757"
       sodipodi:cy="26.445498"
       sodipodi:rx="1.3536836"
       sodipodi:ry="1.3554649"
       sodipodi:start="0"
       sodipodi:end="3.3628478"
       sodipodi:arc-type="arc"
       d="m -3.2182921,26.445498 a 1.3536836,1.3554649 0 0 1 -0.7650643,1.220614 1.3536836,1.3554649 0 0 1 -1.4304068,-0.1591 1.3536836,1.3554649 0 0 1 -0.478897,-1.358977"
       transform="matrix(0.57553446,-0.81777753,0.821243,0.57057859,0,0)"
       sodipodi:open="true" />
    <path
       style="fill:#d9d9d9;fill-opacity:1;stroke:#000000;stroke-width:0.552416;stroke-linecap:round;stroke-linejoin:round;stroke-dasharray:none;stroke-opacity:1;paint-order:stroke markers fill"
       id="path2-8-0-1"
       sodipodi:type="arc"
       sodipodi:cx="-20.884592"
       sodipodi:cy="19.456161"
       sodipodi:rx="1.3450701"
       sodipodi:ry="1.3641651"
       sodipodi:start="0"
       sodipodi:end="3.3628478"
       sodipodi:arc-type="arc"
       d="m -19.539522,19.456161 a 1.3450701,1.3641651 0 0 1 -0.760196,1.22845 1.3450701,1.3641651 0 0 1 -1.421305,-0.160122 1.3450701,1.3641651 0 0 1 -0.47585,-1.367699"
       transform="matrix(0.11971458,-0.99280835,0.99180462,0.12776383,0,0)"
       sodipodi:open="true" />
    <path
       style="fill:#d9d9d9;fill-opacity:1;stroke:#000000;stroke-width:0.552408;stroke-linecap:round;stroke-linejoin:round;stroke-dasharray:none;stroke-opacity:1;paint-order:stroke markers fill"
       id="path2-8-0-8"
       sodipodi:type="arc"
       sodipodi:cx="15.451473"
       sodipodi:cy="23.570583"
       sodipodi:rx="1.3681046"
       sodipodi:ry="1.3411543"
       sodipodi:start="0"
       sodipodi:end="3.3628478"
       sodipodi:arc-type="arc"
       d="m 16.819578,23.570583 a 1.3681046,1.3411543 0 0 1 -0.773215,1.207728 1.3681046,1.3411543 0 0 1 -1.445645,-0.15742 1.3681046,1.3411543 0 0 1 -0.483999,-1.34463"
       transform="matrix(0.92112586,-0.38926488,0.39067814,0.92052734,0,0)"
       sodipodi:open="true" />
    <path
       style="fill:#18833a;fill-opacity:1;stroke:#000000;stroke-width:0.414305;stroke-linecap:round;stroke-linejoin:round;stroke-dasharray:none;stroke-opacity:1;paint-order:stroke markers fill"
       d="m 34.554648,39.827439 3.821357,-0.0844 c -1.277516,-2.499635 -2.335829,-7.229707 -0.594434,-9.537432 -2.451811,1.807375 -1.672743,6.016431 -4.076112,6.414554 1.463614,-1.979925 -1.15558,-3.020239 -0.424595,-4.473306 -2.955053,0.451483 -0.364559,3.400811 -1.443623,4.473306 -0.525631,0.52243 -1.382705,1.313741 -1.698381,1.941246 0.880189,1.009216 3.029605,1.266031 4.415788,1.266028 z"
       id="path4" />
    <path
       style="fill:#d9d9d9;fill-opacity:1;stroke:none;stroke-width:0.414305;stroke-linecap:round;stroke-linejoin:round;stroke-dasharray:none;stroke-opacity:1;paint-order:stroke markers fill"
       d="m 25.807991,35.100927 c 0.124672,-0.631559 1.884219,-3.528981 2.377732,-3.038473 0.150667,0.149751 -0.719962,1.093553 -0.764272,1.181628 -0.270164,0.537044 -0.426506,1.361835 -0.509513,1.856845"
       id="path8" />
    <path
       style="fill:#d9d9d9;fill-opacity:1;stroke:none;stroke-width:0.414305;stroke-linecap:round;stroke-linejoin:round;stroke-dasharray:none;stroke-opacity:1;paint-order:stroke markers fill"
       d="m 29.969022,34.34131 1.019028,-0.675217 c -0.173602,-2.009719 0.526552,-2.819068 1.61346,-3.629286 -2.393035,-1.03773 -4.27593,2.398824 -2.632488,4.304503 z"
       id="path11" />
    <path
       style="fill:#25c258;fill-opacity:1;stroke:#000000;stroke-width:0.414305;stroke-linecap:round;stroke-linejoin:round;stroke-dasharray:none;stroke-opacity:1;paint-order:stroke markers fill"
       d="m 25.12864,39.911844 13.50212,-0.253208 -1.613462,-2.363255 c 0.381164,-1.777401 1.261148,-3.496403 2.547571,-4.135698 -2.806747,0.03765 -3.481679,2.981859 -3.481679,5.401727 -1.235053,-0.646338 0.0714,-3.811532 -0.509513,-4.388902 -0.746568,-0.742023 -1.03118,-0.988815 -1.273786,-2.194453 -0.08825,2.278725 0.565713,4.418066 -0.169838,6.245748 -0.361462,-1.97888 -0.665557,-3.724505 -2.122975,-4.810914 -0.02072,0.750642 0.08492,1.447528 0.08492,2.194452 -2.522981,-0.657834 -2.287873,-3.634195 -0.849187,-5.064121 -2.415554,0.114702 -2.906026,4.251481 -1.783299,5.739337 -0.156943,0.985664 -1.021413,1.772442 -2.038058,1.772442 0.363972,1.0002 -1.358703,1.392845 -1.358703,1.519235 0,0.677558 1.968441,-1.822247 1.358703,-1.519235 -0.286438,0.142349 -0.439993,0.463749 -0.67935,0.675215 -0.44373,0.392026 -0.509513,-2.788439 -0.509513,-2.954069 0,-1.177849 0.205815,-1.928361 0.67935,-2.869669 0.04003,-0.07958 0.148215,-0.316115 0.08492,-0.253205 -2.795458,2.778438 0.130863,4.476899 -1.868218,7.258573 z"
       id="path3" />
    <path
       style="fill:#d9d9d9;fill-opacity:1;stroke:none;stroke-width:0.414305;stroke-linecap:round;stroke-linejoin:round;stroke-dasharray:none;stroke-opacity:1;paint-order:stroke markers fill"
       d="m 23.260422,31.978053 c 2.01303,-3.173831 0.268373,2.758201 -0.509514,4.304503 -0.673659,0.05956 -0.796248,-0.15828 -1.273786,-0.253206 0.757106,-1.420583 2.036255,-2.291382 1.7833,-4.051297 z"
       id="path10" />
    <path
       style="fill:#25c258;fill-opacity:1;stroke:#000000;stroke-width:0.660127;stroke-linecap:butt;stroke-linejoin:round;stroke-dasharray:none;stroke-opacity:1;paint-order:stroke markers fill"
       d="M 29.429689,39.543749 5.651156,39.663105 C 6.320271,36.31186 3.915079,33.425152 1.4478801,32.023908 4.2300122,33.031543 7.032875,34.094559 8.0530289,36.798406 7.8624946,32.800951 6.065291,29.961828 2.5287228,28.20431 7.1055129,27.856846 8.595031,30.038722 9.9745262,33.694982 9.1312518,31.051902 8.445558,27.901481 9.7343387,25.33961 c 2.5186953,2.676904 2.6308983,5.629565 3.0023403,8.952185 0.55589,-5.829488 4.05335,-9.761683 9.247207,-11.697521 -1.824992,4.618288 -4.201037,9.285437 -2.161685,13.846045 1.576802,-1.793364 2.855618,-3.607863 3.122434,-5.729398 0.429948,2.574386 -0.416484,4.843888 -1.200935,6.923021 3.289072,0.08451 5.841536,-4.531641 8.286457,-2.506609 -1.255378,0.806889 -2.459411,1.711469 -3.122434,2.864698 1.130129,0.582571 1.574905,0.744885 2.521966,1.551718 z"
       id="path107" />
    <path
       style="fill:#28cf5e;fill-opacity:1;stroke:#000000;stroke-width:0.522025;stroke-linecap:round;stroke-linejoin:round;stroke-dasharray:none;stroke-opacity:1;paint-order:stroke markers fill"
       d="m 30.6914,39.775445 0.502736,-1.41983 c 0.04403,-0.738716 -0.254612,-1.404724 -0.781275,-1.688083 1.031233,0.01402 1.949818,0.83687 1.915821,1.875921 -0.274436,-1.093989 0.421548,-2.119595 1.228424,-2.681287 -0.430424,1.299378 -0.192432,2.316687 0.594754,2.740219 0.822753,-0.767256 1.347811,-1.888858 2.391996,-1.056432 -0.999307,0.711148 -1.221412,1.479765 -0.68184,2.245456 z"
       id="path165" />
    <path
       style="fill:#28cf5e;fill-opacity:1;stroke:#000000;stroke-width:0.522025;stroke-linecap:round;stroke-linejoin:round;stroke-dasharray:none;stroke-opacity:1;paint-order:stroke markers fill"
       d="m 40.028169,35.255537 c 1.039723,1.365542 0.321902,3.199484 -0.684054,4.532593 h 5.320417 c -0.01455,-1.337141 0.131599,-1.998226 -0.836065,-2.719556 0.07828,0.762711 -0.02149,1.305592 -0.38003,1.661951 -1.12065,-0.896597 -1.253632,-3.150245 0.38003,-3.474988 -1.2471,-0.592696 -1.990403,0.406036 -2.432191,1.284234 -0.328946,-0.821636 -0.416686,-1.554414 -1.368107,-1.284234 z"
       id="path167" />
    <path
       style="fill:#d9d9d9;fill-opacity:1;stroke:none;stroke-width:0.414305;stroke-linecap:round;stroke-linejoin:round;stroke-dasharray:none;stroke-opacity:1;paint-order:stroke markers fill"
       d="m 24.449287,37.548586 3.481679,-0.675217"
       id="path5" />
  </g>
</svg>
