<?xml version="1.0" encoding="UTF-8" standalone="no"?>
<!-- Created with Inkscape (http://www.inkscape.org/) -->

<svg
   width="48"
   height="48"
   viewBox="0 0 48 48"
   version="1.1"
   id="svg1"
   xmlns="http://www.w3.org/2000/svg"
   xmlns:svg="http://www.w3.org/2000/svg">
  <defs
     id="defs1" />
  <g
     id="layer1">
    <path
       style="fill:#18833a;fill-opacity:1;stroke:#000000;stroke-width:0.278;stroke-linecap:round;stroke-linejoin:round;stroke-dasharray:none;stroke-opacity:1;paint-order:stroke markers fill"
       d="m 26.204286,34.898536 c 0.706043,-1.870217 2.104612,-3.768069 4.031936,-4.138523 -0.901024,2.133388 -0.95892,3.767623 -0.336653,5.573763 0.09203,0.26713 -0.121524,0.838347 -0.03823,1.080105 0.08798,0.255362 -0.64654,1.321645 -0.720082,1.602275 l -5.126789,-2.255195 z"
       id="path132-3" />
    <path
       style="fill:#1c9543;fill-opacity:1;stroke:#000000;stroke-width:0.478;stroke-linecap:butt;stroke-linejoin:round;stroke-dasharray:none;stroke-opacity:1;paint-order:stroke markers fill"
       d="M 9.7965445,39.446263 H 38.926093 L 31.643706,35.544985 15.084945,35.97846 Z"
       id="path109" />
    <path
       style="fill:#25c258;fill-opacity:1;stroke:#000000;stroke-width:0.478;stroke-linecap:butt;stroke-linejoin:round;stroke-dasharray:none;stroke-opacity:1;paint-order:stroke markers fill"
       d="m 18.117766,37.712362 17.772492,-0.173391 c -2.506685,-2.881679 -4.547007,-5.82651 -3.554498,-9.796544 -1.199616,2.441426 -2.198115,5.619811 0.433475,6.935607 -5.061816,1.904862 -4.347289,-5.921382 -4.681534,-8.929594 -0.450169,3.288963 -1.950866,7.507523 0.17339,10.05663 -1.214662,-0.525386 -2.022187,-1.054441 -3.034328,-1.560512 0.141663,0.816978 -0.06991,1.470066 -0.260085,2.167377 -2.694287,-0.889605 -3.428067,-4.380515 -2.687548,-6.848911 -1.311145,1.434422 -2.463036,3.47057 -1.473816,5.201705 -2.053222,2.092726 -2.753888,-0.525445 -3.121024,-1.993987 0.08708,1.992567 -1.07891,4.708029 -2.947632,4.94162 1.372039,-0.138264 2.19475,-1.016879 3.381108,0 z"
       id="path108" />
    <path
       style="fill:#e5e5e5;fill-opacity:1;stroke:#000000;stroke-width:0.478;stroke-linecap:butt;stroke-linejoin:round;stroke-dasharray:none;stroke-opacity:1;paint-order:stroke markers fill"
       d="m 21.326991,37.712362 c 0,-8.410546 -0.950552,-18.490351 -6.242051,-23.147588 l 5e-6,-1.733901 15.084945,-0.0867 c -10e-7,0.462375 0.03622,1.327479 0.03622,1.789854 -6.28691,5.562344 -6.104876,13.963919 -6.104876,23.178335 z"
       id="path106" />
    <path
       style="fill:#18833a;fill-opacity:1;stroke:#000000;stroke-width:0.278;stroke-linecap:round;stroke-linejoin:round;stroke-dasharray:none;stroke-opacity:1;paint-order:stroke markers fill"
       d="m 14.375519,33.634326 c -0.184904,-1.990482 0.240574,-4.309276 1.810657,-5.486839 0.124965,2.312482 0.789061,3.806822 2.139868,5.157629 0.199786,0.199786 0.258137,0.80682 0.438947,0.987631 0.190984,0.190984 -0.002,1.471311 0.05487,1.755788 l -5.596578,0.219474 z"
       id="path132" />
    <path
       style="fill:#a3a3a3;fill-opacity:1;stroke:#9e9e9e;stroke-width:0.378;stroke-linecap:round;stroke-linejoin:round;stroke-dasharray:none;stroke-opacity:1;paint-order:stroke markers fill"
       d="m 20.740253,26.611171 0.438948,3.895656 0.164605,1.481447 0.164605,4.77355 -0.219474,2.084999 0.877895,-0.219473 0.548683,-2.030131 0.329211,-2.030131 0.05487,-2.853156 c -0.719268,-0.655286 -1.261975,0.694445 -1.261975,1.261973 0,0.329718 -0.05487,-0.657913 -0.05487,-0.987631 0,-0.720039 -0.219474,-1.391042 -0.219474,-2.139867 0,-0.452684 1.705849,-4.384543 1.591184,-4.499209 -0.380379,-0.380378 -2.113819,1.176147 -2.41421,1.261973 z"
       id="path168" />
    <path
       style="fill:#25c258;fill-opacity:1;stroke:#000000;stroke-width:0.478;stroke-linecap:butt;stroke-linejoin:round;stroke-dasharray:none;stroke-opacity:1;paint-order:stroke markers fill"
       d="m 27.135562,39.272878 -17.1656274,0.08669 c 0.4830314,-2.434069 -1.253267,-4.530737 -3.034328,-5.548485 2.00841,0.731863 4.0317854,1.503951 4.7682304,3.467803 -0.137546,-2.903423 -1.43494,-4.965529 -3.9879744,-6.242046 3.3039664,-0.252369 4.3792434,1.332367 5.3750954,3.987974 -0.608756,-1.919717 -1.103756,-4.207924 -0.17339,-6.068656 1.818236,1.944283 1.899235,4.088854 2.167377,6.502131 0.401295,-4.234061 2.926097,-7.090084 6.675522,-8.496118 -1.317455,3.354346 -3.032712,6.744179 -1.560512,10.05663 1.138287,-1.302552 2.061459,-2.620456 2.254073,-4.161364 0.310377,1.869822 -0.300659,3.518203 -0.866951,5.028314 2.374368,0.06138 4.216982,-3.291412 5.981961,-1.820596 -0.906253,0.586059 -1.775439,1.243072 -2.254073,2.080682 0.815835,0.423132 1.136917,0.541024 1.820597,1.127041 z"
       id="path107" />
    <path
       style="fill:#25c258;fill-opacity:1;stroke:#000000;stroke-width:0.278;stroke-linecap:round;stroke-linejoin:round;stroke-dasharray:none;stroke-opacity:1;paint-order:stroke markers fill"
       d="m 12.455126,38.517613 c -0.09092,-0.175387 0.270728,-0.655711 0.713289,-0.987631 -0.07316,0.164605 -0.146316,0.32921 -0.219474,0.493815 0,0.01829 0,0.03658 0,0.05487 0.375955,-0.349179 0.815745,-0.596273 1.0425,-0.823027 0.06846,0.32758 0.05487,0.656783 0.05487,0.987631 0.342177,-0.280729 0.442877,-0.274342 0.768156,-0.274342 -0.178928,0.332016 -0.164605,0.59665 -0.164605,0.932762"
       id="path130" />
    <path
       style="fill:#25c258;fill-opacity:1;stroke:#000000;stroke-width:0.278;stroke-linecap:round;stroke-linejoin:round;stroke-dasharray:none;stroke-opacity:1;paint-order:stroke markers fill"
       d="m 25.652111,39.335497 c 0.169539,-0.101409 0.114369,-0.700122 -0.08764,-1.215119 -0.02429,0.178486 -0.04858,0.35697 -0.07287,0.535455 -0.0096,0.01556 -0.01923,0.03112 -0.02884,0.04668 -0.136278,-0.494668 -0.380521,-0.936048 -0.454227,-1.248142 -0.230433,0.242686 -0.391918,0.529882 -0.56583,0.811334 -0.143523,-0.418682 -0.232546,-0.466182 -0.50926,-0.637166 -0.02231,0.3765 -0.173602,0.594095 -0.35028,0.880025"
       id="path130-4" />
    <path
       style="fill:#25c258;fill-opacity:1;stroke:#000000;stroke-width:0.278;stroke-linecap:round;stroke-linejoin:round;stroke-dasharray:none;stroke-opacity:1;paint-order:stroke markers fill"
       d="m 29.40946,37.200772 c 0.19373,-0.109174 0.70783,-1.163153 0.32921,-1.920394 0.671285,0.356849 0.934855,0.810474 0.823026,1.481447 0.435681,-0.482238 0.850842,-0.389642 1.37171,-0.493816 -0.326189,0.593031 -0.03739,0.700022 0.219473,1.0425"
       id="path131" />
    <path
       style="fill:none;fill-opacity:1;stroke:#9e9e9e;stroke-width:0.265191;stroke-linecap:round;stroke-linejoin:round;stroke-dasharray:none;stroke-opacity:1;paint-order:stroke markers fill"
       d="m 16.828347,14.711133 c 4.00744,0.101591 7.43088,0.07169 11.526072,-0.122545"
       id="path134" />
    <path
       style="fill:#28cf5e;fill-opacity:1;stroke:#000000;stroke-width:0.24766;stroke-linecap:round;stroke-linejoin:round;stroke-dasharray:none;stroke-opacity:1;paint-order:stroke markers fill"
       d="m 33.691849,34.936011 0.712113,1.560173 c 0.546698,0.915502 0.617163,1.747142 0.617163,2.818376 l -0.996956,0.150984 c 0.17416,-1.070851 0.03065,-1.980636 -0.56969,-2.617063 l 0.759587,0.503281 c -0.330301,-0.743754 -0.297039,-1.580251 -0.522217,-2.415751 z"
       id="path166" />
    <path
       style="fill:#28cf5e;fill-opacity:1;stroke:#000000;stroke-width:0.378;stroke-linecap:round;stroke-linejoin:round;stroke-dasharray:none;stroke-opacity:1;paint-order:stroke markers fill"
       d="m 28.046386,39.441163 0.362923,-1.031248 c 0.03178,-0.536543 -0.183803,-1.020276 -0.563999,-1.226085 0.744443,0.01018 1.407566,0.607833 1.383023,1.362515 -0.198114,-0.794584 0.304314,-1.5395 0.886795,-1.947467 -0.310722,0.943762 -0.138916,1.682652 0.42935,1.99027 0.593943,-0.557271 0.972979,-1.371911 1.726773,-0.767305 -0.721396,0.516519 -0.881733,1.074779 -0.492218,1.630915 z"
       id="path165" />
    <path
       style="fill:#28cf5e;fill-opacity:1;stroke:#000000;stroke-width:0.378;stroke-linecap:round;stroke-linejoin:round;stroke-dasharray:none;stroke-opacity:1;paint-order:stroke markers fill"
       d="m 34.786562,36.158273 c 0.750572,0.991818 0.23238,2.323842 -0.493816,3.292103 h 3.840788 c -0.0105,-0.971189 0.095,-1.451347 -0.603552,-1.975262 0.05651,0.553971 -0.01551,0.948275 -0.274342,1.207105 -0.808993,-0.651215 -0.904992,-2.28808 0.274342,-2.523946 -0.900277,-0.430486 -1.436864,0.294911 -1.755789,0.932762 -0.237465,-0.596769 -0.300804,-1.128999 -0.987631,-0.932762 z"
       id="path167" />
  </g>
</svg>
